PathFileType	4	(X/Y/Z)	C:/Users/opensim2020/Desktop/walking_exp_matlab/subject01_walking15_straight_01.trc	
DataRate	CameraRate	NumFrames	NumMarkers	Units	OrigDataRate	OrigDataStartFrame	OrigNumFrames	
100.00	100.00	4	43	mm	100.00	714	125	
Frame#	Time	LFHD			RFHD			LBHD			RBHD			C7			T10			CLAV			STRN			RBAK			LSHO			LUPA			LELB			LFRM			LWRA			LWRB			LFIN			RSHO			RUPA			RELB			RFRM			RWRA			RWRB			RFIN			LASI			RASI			LPSI			RPSI			LTHI			LKNE			LTIB			LANK			LHEE			LTOE			RTHI			RKNE			RTIB			RANK			RHEE			RTOE			*39			*40			*41			*42			
		X1	Y1	Z1	X2	Y2	Z2	X3	Y3	Z3	X4	Y4	Z4	X5	Y5	Z5	X6	Y6	Z6	X7	Y7	Z7	X8	Y8	Z8	X9	Y9	Z9	X10	Y10	Z10	X11	Y11	Z11	X12	Y12	Z12	X13	Y13	Z13	X14	Y14	Z14	X15	Y15	Z15	X16	Y16	Z16	X17	Y17	Z17	X18	Y18	Z18	X19	Y19	Z19	X20	Y20	Z20	X21	Y21	Z21	X22	Y22	Z22	X23	Y23	Z23	X24	Y24	Z24	X25	Y25	Z25	X26	Y26	Z26	X27	Y27	Z27	X28	Y28	Z28	X29	Y29	Z29	X30	Y30	Z30	X31	Y31	Z31	X32	Y32	Z32	X33	Y33	Z33	X34	Y34	Z34	X35	Y35	Z35	X36	Y36	Z36	X37	Y37	Z37	X38	Y38	Z38	X39	Y39	Z39	X40	Y40	Z40	X41	Y41	Z41	X42	Y42	Z42	X43	Y43	Z43	

47	0.460	1422.11108	-339.06516	1674.60840	1530.35217	-305.68884	1681.73108	1451.84167	-450.27219	1628.13586	1567.03931	-417.51648	1633.93628	1480.67969	-475.04349	1434.72693	1481.17212	-510.38037	1140.15686	1478.91162	-327.24673	1370.61621	1470.96155	-284.83432	1215.40686	1553.40466	-529.09192	1240.75659	1321.09131	-392.05719	1408.21741	1231.56165	-430.37994	1229.17480	1228.98157	-447.69003	1076.65356	1206.23132	-398.40405	971.11029	1222.27612	-305.57257	868.35693	1204.03809	-360.32642	854.53894	1188.81628	-303.94556	794.27203	1629.19666	-395.60263	1400.83533	1728.39490	-456.49905	1201.41968	1731.11438	-450.55673	1076.14001	1758.40601	-417.45352	959.68384	1734.75061	-333.78192	845.48547	1774.86975	-375.40546	844.87280	1775.49951	-335.58231	768.42944	1371.37732	-336.18350	933.22223	1587.06775	-334.22821	936.85870	1421.27551	-520.67389	948.70209	1566.80969	-518.59546	955.74200	1304.32642	-315.83615	604.66272	1313.87805	-308.39734	472.88617	1318.33154	-452.93817	362.68692	1373.44104	-608.40735	209.94402	1434.03760	-651.74359	217.05495	1356.36414	-545.93707	76.84795	1640.08765	-383.71817	602.54669	1612.97510	-367.34607	444.55051	1618.91272	-430.37778	277.85791	1566.09119	-468.31107	76.84245	1515.89807	-519.06708	42.18192	1569.09570	-330.50262	33.59699	1510.59485	-321.55515	1714.76355	-3101.96631	1972.99915	1023.87268	-3140.63037	2012.58813	1022.16565			 
48	0.470	1422.59619	-325.97333	1675.04797	1530.59692	-292.34644	1682.21497	1452.69470	-437.18555	1628.73950	1567.75085	-404.03174	1634.59644	1481.84509	-462.15372	1435.29810	1482.22131	-497.85135	1140.88513	1479.71704	-314.50787	1371.21753	1472.02966	-271.15668	1216.06396	1554.98621	-516.00018	1241.47070	1322.00354	-379.62595	1408.77405	1233.07336	-419.54199	1229.69507	1231.86060	-438.46014	1077.45996	1208.18896	-393.07291	970.74786	1222.96375	-303.73682	864.49420	1205.41882	-359.67694	852.89441	1189.58472	-305.43512	790.44135	1630.00879	-382.36603	1401.72461	1730.29700	-440.79672	1202.21118	1733.18176	-433.29800	1076.65454	1760.02051	-396.70316	960.87421	1735.52966	-309.87604	849.35742	1775.83105	-351.27063	847.35516	1776.19055	-309.02405	772.29163	1372.81189	-323.51459	934.54797	1588.46289	-322.05676	937.26239	1421.86829	-508.03497	949.80011	1567.17969	-506.21698	956.65350	1305.15466	-297.44833	607.63092	1315.09998	-287.03308	476.14297	1320.06091	-427.75128	361.14624	1376.00427	-577.02496	202.68102	1436.90808	-621.12115	206.74388	1356.47729	-507.35156	74.90749	1640.55176	-376.90146	602.94232	1613.90759	-364.45004	444.73102	1619.11194	-429.21414	278.64743	1566.07397	-468.11172	77.64035	1515.67810	-519.22369	44.01337	1569.22290	-330.36398	33.51553	1510.90051	-308.17413	1715.28760	-3101.91357	1973.07800	1023.66876	-3140.66284	2012.50134	1022.04504			 
49	0.480	1422.88086	-312.98419	1675.36707	1530.81909	-278.86737	1682.62073	1453.41602	-424.10458	1629.23181	1568.37720	-390.56155	1635.19775	1482.88867	-449.35745	1435.89514	1483.23486	-485.40399	1141.60034	1480.33362	-301.83792	1371.69226	1472.82275	-259.45795	1216.52881	1556.44189	-502.90851	1242.11426	1322.77356	-367.02750	1409.22217	1234.39038	-408.51682	1230.10498	1234.21741	-428.89890	1078.51685	1210.07422	-387.56067	970.51727	1223.83081	-301.87213	860.97607	1206.93933	-358.42029	851.46350	1190.44043	-306.87436	786.93616	1630.79114	-369.15302	1402.49036	1732.06433	-425.26215	1203.00574	1735.13831	-416.27707	1077.11597	1761.55713	-376.18484	962.18494	1736.11316	-286.11838	853.42041	1776.59241	-327.29483	850.01685	1776.67688	-282.62180	776.41571	1374.10168	-310.76282	935.81360	1589.61926	-310.02203	937.44604	1422.54932	-495.52203	950.68219	1567.77771	-494.02969	957.58472	1305.99207	-279.53555	610.48169	1316.65125	-266.18726	479.43018	1321.56274	-402.18295	358.42181	1378.45325	-544.86224	194.43201	1439.67639	-588.78003	194.75677	1356.78345	-467.79117	72.07282	1640.97034	-369.96988	603.26807	1614.58972	-361.33969	444.91083	1619.36548	-427.80002	279.60092	1566.17261	-467.62271	78.70432	1515.22864	-519.13953	45.39488	1569.43469	-330.24435	33.54345	1511.11145	-294.78162	1715.69568	-3102.11230	1973.04895	1023.93713	-3140.70361	2012.48047	1022.06470			 
50	0.490	1423.09509	-299.88754	1675.51624	1530.95239	-265.46732	1682.89111	1454.04065	-410.94122	1629.54688	1568.85803	-377.09525	1635.60242	1483.71472	-436.47195	1436.27393	1484.14197	-472.71622	1142.09119	1481.02771	-288.94727	1372.08203	1473.64587	-246.74088	1216.90613	1557.81519	-489.86011	1242.66589	1323.43237	-354.31339	1409.47351	1235.57251	-397.34885	1230.35840	1236.31946	-419.30066	1079.30737	1211.86609	-381.88022	970.31494	1224.80481	-299.89160	857.66064	1208.36597	-356.89163	850.20435	1191.41467	-307.81448	783.92993	1631.43689	-355.96841	1403.14221	1733.63000	-409.96030	1203.64368	1736.99390	-399.41397	1077.59424	1762.87183	-355.90250	963.55029	1736.63184	-262.61276	857.75018	1777.26465	-303.33899	852.97052	1776.98035	-256.44492	780.85510	1375.14307	-298.12036	936.92114	1590.62390	-297.99420	937.51599	1423.24817	-483.02948	951.28149	1568.36133	-481.81079	958.14026	1306.78809	-262.01282	613.25476	1318.26331	-245.84180	482.51050	1323.28162	-376.16608	354.84686	1380.86511	-511.92233	185.59842	1442.48706	-555.87720	182.79073	1356.98560	-427.60199	68.48905	1641.37793	-363.01050	603.65167	1615.21753	-357.82483	445.28268	1619.52612	-425.97995	280.64328	1566.10693	-467.27835	79.72239	1514.98865	-518.69275	47.06731	1569.63293	-330.11743	33.44103	1511.21753	-281.44354	1715.99854	-3101.96777	1973.10303	1023.59888	-3140.82300	2012.55078	1022.15509			 
